<svg width="50" height="50" viewBox="0 0 50 50" fill="none" xmlns="http://www.w3.org/2000/svg">
<path d="M47.5 0H2.5C1.83696 0 1.20107 0.263392 0.732233 0.732233C0.263392 1.20107 0 1.83696 0 2.5V30.8333C0 31.4964 0.263392 32.1323 0.732233 32.6011C1.20107 33.0699 1.83696 33.3333 2.5 33.3333H47.5C48.163 33.3333 48.7989 33.0699 49.2678 32.6011C49.7366 32.1323 50 31.4964 50 30.8333V2.5C50 1.83696 49.7366 1.20107 49.2678 0.732233C48.7989 0.263392 48.163 0 47.5 0ZM45 28.3333H24.9358C24.729 26.0281 23.667 23.8837 21.9589 22.3219C20.2507 20.7601 18.0199 19.8941 15.7054 19.8941C13.3909 19.8941 11.1602 20.7601 9.45198 22.3219C7.7438 23.8837 6.68185 26.0281 6.475 28.3333H5V5H45V28.3333Z" fill="black"/>
<path d="M25.8817 22.4046C25.8287 22.5531 25.8189 22.7137 25.8535 22.8676C25.8882 23.0215 25.9658 23.1625 26.0773 23.274C26.1889 23.3856 26.3298 23.4632 26.4837 23.4978C26.6376 23.5324 26.7982 23.5226 26.9467 23.4696L30.0001 22.3779C31.7621 23.4039 33.8373 23.7533 35.8382 23.3611C37.839 22.9688 39.6287 21.8616 40.8729 20.2463C42.1171 18.631 42.7308 16.618 42.5993 14.5833C42.4678 12.5486 41.6002 10.6313 40.1584 9.18956C38.7167 7.74781 36.7994 6.88016 34.7647 6.74868C32.73 6.6172 30.717 7.23087 29.1017 8.47507C27.4863 9.71927 26.3792 11.5089 25.9869 13.5098C25.5946 15.5107 25.9441 17.5859 26.9701 19.3479L25.8817 22.4046ZM34.2259 8.39957C35.2731 8.39874 36.306 8.64245 37.2424 9.11129C38.1788 9.58012 38.9928 10.2611 39.6195 11.1001C40.2463 11.939 40.6684 12.9127 40.8524 13.9436C41.0364 14.9746 40.9772 16.0342 40.6794 17.0381C40.3815 18.0421 39.8534 18.9627 39.137 19.7265C38.4207 20.4903 37.5358 21.0763 36.553 21.4378C35.5702 21.7993 34.5165 21.9263 33.4759 21.8087C32.4353 21.6911 31.4366 21.3321 30.5592 20.7604C30.4513 20.6907 30.3287 20.647 30.2011 20.6325C30.0734 20.6181 29.9442 20.6333 29.8234 20.6771L28.0467 21.3112L28.6817 19.5346C28.7249 19.4135 28.7395 19.284 28.7243 19.1564C28.7091 19.0287 28.6646 18.9063 28.5942 18.7987C27.9328 17.784 27.5578 16.6094 27.5088 15.399C27.4598 14.1887 27.7387 12.9877 28.3159 11.9227C28.8931 10.8578 29.7473 9.9686 30.7882 9.34904C31.829 8.72948 33.0179 8.40259 34.2292 8.40291L34.2259 8.39957Z" fill="black"/>
<path d="M6.66669 40.8337C8.0474 40.8337 9.16669 39.7145 9.16669 38.3337C9.16669 36.953 8.0474 35.8337 6.66669 35.8337C5.28598 35.8337 4.16669 36.953 4.16669 38.3337C4.16669 39.7145 5.28598 40.8337 6.66669 40.8337Z" fill="black"/>
<path d="M0.201416 49.1664C0.201416 49.3874 0.289213 49.5994 0.445494 49.7557C0.601774 49.912 0.813736 49.9998 1.03475 49.9998H12.0423C12.2633 49.9998 12.4752 49.912 12.6315 49.7557C12.7878 49.5994 12.8756 49.3874 12.8756 49.1664C12.8756 47.4857 12.2079 45.8739 11.0195 44.6854C9.83106 43.497 8.2192 42.8293 6.5385 42.8293C4.8578 42.8293 3.24594 43.497 2.0575 44.6854C0.869071 45.8739 0.201416 47.4857 0.201416 49.1664Z" fill="black"/>
<path d="M24.9996 40.8337C26.3803 40.8337 27.4996 39.7145 27.4996 38.3337C27.4996 36.953 26.3803 35.8337 24.9996 35.8337C23.6189 35.8337 22.4996 36.953 22.4996 38.3337C22.4996 39.7145 23.6189 40.8337 24.9996 40.8337Z" fill="black"/>
<path d="M18.5364 49.1664C18.5364 49.3874 18.6242 49.5994 18.7805 49.7557C18.9367 49.912 19.1487 49.9998 19.3697 49.9998H30.3772C30.5982 49.9998 30.8102 49.912 30.9665 49.7557C31.1227 49.5994 31.2105 49.3874 31.2105 49.1664C31.2105 47.4857 30.5429 45.8739 29.3545 44.6854C28.166 43.497 26.5542 42.8293 24.8735 42.8293C23.1928 42.8293 21.5809 43.497 20.3925 44.6854C19.204 45.8739 18.5364 47.4857 18.5364 49.1664Z" fill="black"/>
<path d="M43.3325 40.8337C44.7132 40.8337 45.8325 39.7145 45.8325 38.3337C45.8325 36.953 44.7132 35.8337 43.3325 35.8337C41.9518 35.8337 40.8325 36.953 40.8325 38.3337C40.8325 39.7145 41.9518 40.8337 43.3325 40.8337Z" fill="black"/>
<path d="M36.8693 49.1664C36.8693 49.3874 36.9571 49.5994 37.1134 49.7557C37.2697 49.912 37.4816 49.9998 37.7027 49.9998H48.7102C48.9312 49.9998 49.1431 49.912 49.2994 49.7557C49.4557 49.5994 49.5435 49.3874 49.5435 49.1664C49.5435 47.4857 48.8758 45.8739 47.6874 44.6854C46.499 43.497 44.8871 42.8293 43.2064 42.8293C41.5257 42.8293 39.9138 43.497 38.7254 44.6854C37.537 45.8739 36.8693 47.4857 36.8693 49.1664Z" fill="black"/>
<path d="M15.9014 15.9448C16.5717 15.9448 17.227 15.746 17.7844 15.3736C18.3417 15.0012 18.7761 14.4718 19.0326 13.8525C19.2891 13.2331 19.3562 12.5516 19.2254 11.8942C19.0945 11.2367 18.7716 10.6328 18.2976 10.1589C17.8235 9.68492 17.2195 9.3622 16.5621 9.23153C15.9046 9.10085 15.2231 9.16808 14.6038 9.42473C13.9845 9.68138 13.4553 10.1159 13.083 10.6734C12.7107 11.2308 12.512 11.8862 12.5122 12.5565C12.5133 13.455 12.8708 14.3163 13.5061 14.9515C14.1415 15.5867 15.0029 15.944 15.9014 15.9448Z" fill="black"/>
<path d="M32.907 18.0014L37.5504 15.5155C37.6164 15.4801 37.6716 15.4276 37.7102 15.3635C37.7489 15.2994 37.7696 15.2261 37.7701 15.1512C37.7706 15.0763 37.7509 15.0027 37.7132 14.938C37.6754 14.8734 37.6209 14.8201 37.5554 14.7839L32.912 12.2164C32.8486 12.1813 32.777 12.1633 32.7045 12.1643C32.632 12.1654 32.561 12.1853 32.4986 12.2222C32.4361 12.259 32.3844 12.3116 32.3484 12.3746C32.3125 12.4376 32.2936 12.5088 32.2937 12.5814V17.6339C32.2937 17.7059 32.3123 17.7767 32.3478 17.8394C32.3833 17.902 32.4344 17.9544 32.4962 17.9914C32.558 18.0285 32.6283 18.0488 32.7003 18.0506C32.7723 18.0523 32.8435 18.0354 32.907 18.0014Z" fill="black"/>
</svg>
